# Blender v2.80 (sub 41) OBJ File: ''
# www.blender.org
mtllib Star_01.mtl
o pCylinder3
v 54.018112 41.710125 109.785614
v 24.690939 -0.000014 85.228233
v 23.032339 106.980080 109.785622
v 125.922470 34.636051 109.785614
v 25.481358 -50.982296 109.785622
v 88.914040 -85.573769 109.785614
v -23.551847 -16.506140 109.785622
v -36.848511 -87.523560 109.785622
v -5.915174 40.780945 109.785622
v -77.565689 31.481245 109.785622
v 24.690941 -0.000014 134.343018
v 73.422234 -15.002682 109.785614
vt 0.373591 0.935591
vt 0.500000 0.837500
vt 0.400000 0.500470
vt 0.450000 0.500470
vt 0.425000 0.500470
vt 0.548284 0.695147
vt 0.500000 0.500470
vt 0.656250 0.843750
vt 0.550000 0.500470
vt 0.548284 0.992353
vt 0.600000 0.500470
vt 0.500000 0.150000
vt 0.475000 0.500470
vt 0.373591 0.248091
vt 0.575000 0.500470
vt 0.656250 0.156250
vt 0.373591 0.751909
vt 0.375000 0.500470
vt 0.525000 0.500470
vt 0.373591 0.064409
vt 0.548284 0.304853
vt 0.625000 0.500470
vt 0.548284 0.007647
vn 0.2496 0.3550 -0.9010
vn 0.4374 0.2076 -0.8750
vn 0.0474 0.4818 -0.8750
vn 0.0067 -0.4339 -0.9010
vn -0.2318 -0.4251 -0.8750
vn -0.4106 -0.1405 -0.9010
vn -0.4759 0.0891 -0.8750
vn -0.2605 0.3471 -0.9010
vn -0.0623 0.4801 -0.8750
vn 0.2496 0.3550 0.9010
vn 0.4374 0.2076 0.8750
vn 0.4147 -0.1277 0.9010
vn 0.3326 -0.3518 0.8750
vn 0.4729 0.1038 0.8750
vn -0.4106 -0.1405 0.9010
vn -0.4759 0.0891 0.8750
vn -0.3216 -0.3619 0.8750
vn 0.4147 -0.1277 -0.9010
vn 0.3326 -0.3518 -0.8750
vn 0.4729 0.1038 -0.8750
vn -0.4436 0.1940 -0.8750
vn -0.3216 -0.3619 -0.8750
vn 0.2449 -0.4177 -0.8750
vn 0.0474 0.4818 0.8750
vn 0.0067 -0.4339 0.9010
vn -0.2318 -0.4251 0.8750
vn 0.2449 -0.4177 0.8750
vn -0.2605 0.3471 0.9010
vn -0.0623 0.4801 0.8750
vn -0.4436 0.1940 0.8750
usemtl blinn2SG
s 1
f 1/1/1 2/2/1 3/3/2
f 4/4/3 2/2/1 1/5/1
f 5/6/4 2/2/4 6/7/5
f 7/8/6 2/2/6 8/9/7
f 9/10/8 2/2/8 10/11/9
f 1/5/10 3/3/11 11/12/10
f 12/13/12 4/4/13 11/12/12
f 11/12/12 6/7/14 12/14/12
f 7/15/15 8/9/16 11/12/15
f 11/12/15 10/11/17 7/16/15
f 12/17/18 2/2/18 4/4/19
f 2/2/18 12/13/18 6/7/20
f 2/2/8 9/18/8 3/3/21
f 2/2/6 7/15/6 10/11/22
f 2/2/4 5/19/4 8/9/23
f 4/4/24 1/20/10 11/12/10
f 5/19/25 6/7/26 11/12/25
f 8/9/27 5/21/25 11/12/25
f 9/22/28 10/11/29 11/12/28
f 3/3/30 9/23/28 11/12/28
